SplineFontDB: 3.0
FontName: A-Industrial-Black
FullName: A Industrial Black
FamilyName: A Industrial Black
Weight: Black
Copyright: Copyright (c) 2017, Asabina GmbH <type.industrial@asabina.de>
UComments: "A decorative type used in the wordmark for Asabina Gmbh. The type intents to look industrial and resemble some attributes one may find in typefaces associated with sci-fi productions."
FontLog: "2017-9-16: Starting a prototype in FontForge (http://fontforge.org) based on some characters designed in Inkscape"
Version: 0.1
ItalicAngle: 0
UnderlinePosition: -204.395
UnderlineWidth: 102.198
Ascent: 1428
Descent: 620
InvalidEm: 0
LayerCount: 2
Layer: 0 0 "Back" 1
Layer: 1 0 "Fore" 0
XUID: [1021 1019 -1955934214 2614676]
FSType: 0
OS2Version: 0
OS2_WeightWidthSlopeOnly: 0
OS2_UseTypoMetrics: 1
CreationTime: 1505574909
ModificationTime: 1505728854
PfmFamily: 17
TTFWeight: 400
TTFWidth: 5
LineGap: 184
VLineGap: 0
OS2TypoAscent: 0
OS2TypoAOffset: 1
OS2TypoDescent: 0
OS2TypoDOffset: 1
OS2TypoLinegap: 184
OS2WinAscent: 0
OS2WinAOffset: 1
OS2WinDescent: 0
OS2WinDOffset: 1
HheadAscent: 0
HheadAOffset: 1
HheadDescent: 0
HheadDOffset: 1
OS2Vendor: 'PfEd'
MarkAttachClasses: 1
DEI: 91125
LangName: 1033
Encoding: UnicodeBmp
UnicodeInterp: none
NameList: AGL For New Fonts
DisplaySize: -128
AntiAlias: 1
FitToEm: 0
WinInfo: 22 11 10
BeginPrivate: 0
EndPrivate
Grid
2043.95214844 2274.65625 m 0
 2043.95214844 -2072.28417969 l 1024
  Named: "2022"
102.197265625 2274.65625 m 0
 102.197265625 -2072.28417969 l 1028
  Named: "2"
-202.37109375 -613.185546875 m 0
 2274.65625 -613.185546875 l 1024
  Named: "s3"
-202.37109375 -408.790039062 m 0
 2274.65625 -408.790039062 l 1024
  Named: "s2"
-202.37109375 -204.395507812 m 0
 2274.65625 -204.395507812 l 1024
  Named: "s1"
-202.37109375 1430.76660156 m 0
 2274.65625 1430.76660156 l 1024
  Named: "n7"
-202.37109375 1226.37109375 m 0
 2274.65625 1226.37109375 l 1024
  Named: "n6"
-202.37109375 1021.9765625 m 0
 2274.65625 1021.9765625 l 1024

StartChar: a
Encoding: 97 97 0
Width: 1430
VWidth: 0
Flags: HW
HStem: 0 409<511 920> 613 409<511 920>
LayerCount: 2
Fore
SplineSet
511 409 m 1
 643 409 788 409 920 409 c 1
 920 613 l 1
 783 613 648 613 511 613 c 1
 511 409 l 1
102 0 m 1
 102 341 102 681 102 1022 c 1
 374 1022 648 1022 920 1022 c 1
 920 1226 l 1
 1329 1022 l 1
 1329 0 l 1
 920 0 511 0 102 0 c 1
EndSplineSet
EndChar

StartChar: s
Encoding: 115 115 1
Width: 1430
VWidth: 0
Flags: HW
HStem: 0 409<102 920> 613 409<102 193 511 920>
LayerCount: 2
Fore
SplineSet
102 0 m 25
 102 409 l 17
 374 409 648 409 920 409 c 9
 920 613 l 25
 102 613 l 25
 102 1022 l 17
 231 1085 364 1151 511 1226 c 9
 511 1022 l 17
 783 1022 1057 1022 1329 1022 c 9
 1329 0 l 25
 102 0 l 25
EndSplineSet
EndChar

StartChar: b
Encoding: 98 98 2
Width: 1430
VWidth: 0
Flags: HW
HStem: 0 409<511 920> 613 409<511 920> 1411 20G<102 511>
VStem: 102 409<409 613 1022 1431>
LayerCount: 2
Fore
SplineSet
511 613 m 25
 511 409 l 25
 920 409 l 25
 920 613 l 25
 511 613 l 25
102 1431 m 25
 511 1431 l 25
 511 1022 l 25
 1329 1022 l 25
 1329 0 l 25
 102 0 l 25
 102 1431 l 25
EndSplineSet
EndChar

StartChar: i
Encoding: 105 105 3
Width: 613
VWidth: 0
Flags: HW
HStem: 0 21G<102 511> 1002 20G<102 511>
VStem: 102 409<0 1022>
LayerCount: 2
Fore
SplineSet
102 0 m 25
 102 1022 l 25
 511 1022 l 25
 511 0 l 25
 102 0 l 25
EndSplineSet
EndChar

StartChar: n
Encoding: 110 110 4
Width: 1430
VWidth: 0
Flags: HW
HStem: 0 21G<102 511 920 1329> 613 409<511 920>
VStem: 102 409<0 613> 920 409<0 613>
LayerCount: 2
Fore
SplineSet
102 0 m 25
 102 1022 l 25
 1329 1022 l 25
 1329 0 l 25
 920 0 l 25
 920 613 l 25
 511 613 l 25
 511 0 l 25
 102 0 l 25
EndSplineSet
EndChar

StartChar: q
Encoding: 113 113 5
Width: 1430
VWidth: 0
Flags: HW
HStem: -409 21G<920 960> 0 409<511 920> 613 409<511 920>
VStem: 920 409<-204 0 409 613>
LayerCount: 2
Fore
SplineSet
511 409 m 25
 920 409 l 25
 920 613 l 17
 783 613 648 613 511 613 c 9
 511 409 l 25
102 0 m 1
 102 1022 l 25
 1329 1022 l 1
 1329 -204 l 1
 920 -409 l 1
 920 0 l 1
 102 0 l 1
EndSplineSet
EndChar

StartChar: c
Encoding: 99 99 6
Width: 1430
VWidth: 0
Flags: HW
HStem: 0 409<511 1329> 613 409<511 1329>
LayerCount: 2
Fore
SplineSet
102 0 m 25
 102 1022 l 25
 1329 1022 l 25
 1329 613 l 25
 511 613 l 25
 511 409 l 25
 1329 409 l 25
 1329 0 l 25
 102 0 l 25
EndSplineSet
EndChar

StartChar: d
Encoding: 100 100 7
Width: 1430
VWidth: 0
Flags: HW
HStem: 0 409<511 920> 613 409<511 920> 1411 20G<920 1329>
VStem: 920 409<409 613 1022 1431>
LayerCount: 2
Fore
SplineSet
511 613 m 9
 511 409 l 25
 920 409 l 25
 920 613 l 17
 783 613 648 613 511 613 c 9
102 0 m 25
 102 1022 l 25
 920 1022 l 25
 920 1431 l 25
 1329 1431 l 25
 1329 0 l 25
 102 0 l 25
EndSplineSet
EndChar

StartChar: e
Encoding: 101 101 8
Width: 1430
VWidth: 0
Flags: HW
HStem: 0 409<511 920> 613 409<511 920>
LayerCount: 2
Fore
SplineSet
511 613 m 25
 511 409 l 17
 648 409 783 409 920 409 c 9
 920 613 l 25
 511 613 l 25
102 0 m 25
 102 1022 l 25
 1329 1022 l 25
 1329 0 l 25
 511 0 l 25
 511 -204 l 25
 102 0 l 25
EndSplineSet
EndChar

StartChar: f
Encoding: 102 102 9
Width: 1430
VWidth: 0
Flags: HW
HStem: -409 21G<471 511> 0 409<511 920> 613 409<511 1329>
VStem: 102 409<-204 0 409 613>
LayerCount: 2
Fore
SplineSet
102 1022 m 25
 1329 1022 l 25
 1329 613 l 25
 511 613 l 25
 511 409 l 1
 1329 409 l 25
 1329 0 l 25
 511 0 l 1
 511 -409 l 25
 102 -204 l 25
 102 1022 l 25
EndSplineSet
EndChar

StartChar: g
Encoding: 103 103 10
Width: 1430
VWidth: 0
Flags: HW
HStem: -613 409<102 511 920 1329> 613 409<511 920>
VStem: 102 1226<-613 -204 0 409 613 1022>
LayerCount: 2
Fore
SplineSet
511 409 m 25
 920 409 l 25
 920 613 l 17
 783 613 648 613 511 613 c 9
 511 409 l 25
1329 -613 m 1
 613 -613 l 25
 613 -204 l 25
 920 -204 l 25
 920 0 l 25
 102 0 l 1
 102 1022 l 1
 511 1022 920 1022 1329 1022 c 1
 1329 -613 l 1
EndSplineSet
EndChar

StartChar: h
Encoding: 104 104 11
Width: 1430
VWidth: 0
Flags: HW
HStem: 0 21G<102 511 920 1329> 613 409<511 920> 1411 20G<102 511>
VStem: 102 409<0 613 1022 1431> 920 409<0 613>
LayerCount: 2
Fore
SplineSet
102 0 m 25
 102 1431 l 25
 511 1431 l 25
 511 1022 l 25
 1329 1022 l 25
 1329 0 l 25
 920 0 l 25
 920 613 l 25
 511 613 l 25
 511 0 l 25
 102 0 l 25
EndSplineSet
EndChar

StartChar: j
Encoding: 106 106 12
Width: 613
VWidth: 0
Flags: HW
HStem: -409 21G<102 143> 1002 20G<102 511>
VStem: 102 409<-204 1022>
LayerCount: 2
Fore
SplineSet
102 1022 m 25
 511 1022 l 25
 511 -204 l 25
 102 -409 l 25
 102 1022 l 25
EndSplineSet
EndChar

StartChar: k
Encoding: 107 107 13
Width: 1430
VWidth: 0
Flags: HW
HStem: 0 21G<102 511 715 1329> 613 409<511 715 1124 1329> 1411 20G<102 511>
VStem: 102 409<0 613 1022 1431> 715 613<0 409>
LayerCount: 2
Fore
SplineSet
1124 613 m 29
 1124 409 l 25
 1329 409 l 25
 1329 0 l 25
 715 0 l 25
 715 613 l 25
 511 613 l 25
 511 0 l 25
 102 0 l 25
 102 1431 l 25
 511 1431 l 25
 511 1022 l 25
 1329 1022 l 25
 1124 613 l 29
EndSplineSet
EndChar

StartChar: l
Encoding: 108 108 14
Width: 613
VWidth: 0
Flags: HW
HStem: 0 21G<102 511> 1411 20G<102 511>
VStem: 102 409<0 1431>
LayerCount: 2
Fore
SplineSet
102 0 m 25
 102 1431 l 25
 511 1431 l 25
 511 0 l 25
 102 0 l 25
EndSplineSet
EndChar

StartChar: m
Encoding: 109 109 15
Width: 1839
VWidth: 0
Flags: HW
HStem: 0 21G<102 511 715 1124 1329 1737> 613 409<511 715 1124 1329>
VStem: 102 409<0 613> 715 409<0 613> 1329 409<0 613>
CounterMasks: 1 38
LayerCount: 2
Fore
SplineSet
102 0 m 25
 102 1022 l 25
 1737 1022 l 25
 1737 0 l 25
 1329 0 l 25
 1329 613 l 25
 1124 613 l 25
 1124 0 l 25
 715 0 l 25
 715 613 l 25
 511 613 l 25
 511 0 l 25
 102 0 l 25
EndSplineSet
EndChar

StartChar: o
Encoding: 111 111 16
Width: 1430
VWidth: 0
Flags: HW
HStem: 0 409<511 920> 613 409<511 920>
LayerCount: 2
Fore
SplineSet
511 409 m 25
 920 409 l 25
 920 613 l 17
 783 613 648 613 511 613 c 9
 511 409 l 25
102 0 m 25
 102 1022 l 25
 1329 1022 l 25
 1329 0 l 25
 102 0 l 25
EndSplineSet
EndChar

StartChar: p
Encoding: 112 112 17
Width: 1430
VWidth: 0
Flags: HW
HStem: -409 21G<102 511> 0 409<511 920> 613 409<511 920>
VStem: 102 409<-409 0 409 613>
LayerCount: 2
Fore
SplineSet
511 409 m 25
 920 409 l 25
 920 613 l 17
 783 613 648 613 511 613 c 9
 511 409 l 25
102 -409 m 1
 102 1022 l 25
 1329 1022 l 25
 1329 0 l 17
 511 0 l 1
 511 -409 l 1
 102 -409 l 1
EndSplineSet
EndChar

StartChar: r
Encoding: 114 114 18
Width: 1429
VWidth: 0
Flags: HW
HStem: 0 21G<102 511> 613 409<511 1329>
VStem: 102 409<0 613>
LayerCount: 2
Fore
SplineSet
102 0 m 25
 102 1022 l 25
 1329 1022 l 25
 1329 613 l 25
 511 613 l 25
 511 0 l 25
 102 0 l 25
EndSplineSet
EndChar

StartChar: t
Encoding: 116 116 19
Width: 1430
VWidth: 0
Flags: HW
HStem: 0 409<511 1329> 613 409<511 920> 1411 20G<471 511>
VStem: 102 409<409 613 1022 1226>
LayerCount: 2
Fore
SplineSet
102 0 m 17
 102 406 102 820 102 1226 c 9
 511 1431 l 25
 511 1022 l 1
 1329 1022 l 1
 1329 613 l 5
 511 613 l 1
 511 409 l 25
 1329 409 l 25
 1329 0 l 25
 102 0 l 17
EndSplineSet
EndChar

StartChar: u
Encoding: 117 117 20
Width: 1430
VWidth: 0
Flags: HW
HStem: 0 409<511 920> 1002 20G<102 511 920 1329>
VStem: 102 409<409 1022> 920 409<409 1022>
LayerCount: 2
Fore
SplineSet
102 0 m 25
 102 1022 l 25
 511 1022 l 25
 511 409 l 25
 920 409 l 25
 920 1022 l 25
 1329 1022 l 25
 1329 -204 l 25
 920 0 l 25
 102 0 l 25
EndSplineSet
EndChar

StartChar: v
Encoding: 118 118 21
Width: 1430
VWidth: 0
Flags: HW
HStem: 0 409<511 920> 1002 20G<102 511 920 1329>
VStem: 102 409<409 1022> 920 409<409 1022>
LayerCount: 2
Fore
SplineSet
102 0 m 25
 102 1022 l 25
 511 1022 l 25
 511 409 l 25
 920 409 l 25
 920 1022 l 25
 1329 1022 l 25
 1329 0 l 25
 102 0 l 25
EndSplineSet
EndChar

StartChar: w
Encoding: 119 119 22
Width: 1839
VWidth: 0
Flags: HW
HStem: 0 409<511 715 1124 1329> 1002 20G<102 511 715 1124 1329 1737>
VStem: 102 409<409 1022> 715 409<409 1022> 1329 409<409 1022>
CounterMasks: 1 38
LayerCount: 2
Fore
SplineSet
102 0 m 25
 102 1022 l 25
 511 1022 l 25
 511 409 l 25
 715 409 l 25
 715 1022 l 25
 1124 1022 l 25
 1124 409 l 25
 1329 409 l 25
 1329 1022 l 25
 1737 1022 l 25
 1737 0 l 25
 102 0 l 25
EndSplineSet
EndChar

StartChar: x
Encoding: 120 120 23
Width: 1430
VWidth: 0
Flags: HW
HStem: 0 409<102 511 920 1329> 613 409<102 511 920 1329>
LayerCount: 2
Fore
SplineSet
102 0 m 25
 102 409 l 25
 511 409 l 25
 511 613 l 25
 102 613 l 25
 102 1022 l 25
 1329 1022 l 25
 1329 613 l 25
 920 613 l 25
 920 409 l 25
 1329 409 l 25
 1329 0 l 25
 102 0 l 25
EndSplineSet
EndChar

StartChar: y
Encoding: 121 121 24
Width: 1430
VWidth: 0
Flags: HW
HStem: -613 409<511 920> 0 409<511 920> 1002 20G<102 511 920 1329>
VStem: 102 409<409 1022> 920 409<-204 0 409 1022>
LayerCount: 2
Fore
SplineSet
102 0 m 25
 102 1022 l 25
 511 1022 l 25
 511 409 l 25
 920 409 l 25
 920 1022 l 25
 1329 1022 l 25
 1329 -613 l 25
 511 -613 l 25
 511 -204 l 25
 920 -204 l 25
 920 0 l 25
 102 0 l 25
EndSplineSet
EndChar

StartChar: z
Encoding: 122 122 25
Width: 1430
VWidth: 0
Flags: HW
HStem: 0 409<920 1329> 613 409<102 511>
LayerCount: 2
Fore
SplineSet
1329 1022 m 25
 1329 613 l 1
 920 409 l 1
 1329 409 l 1
 1329 0 l 25
 102 0 l 25
 102 409 l 25
 511 613 l 25
 102 613 l 25
 102 1022 l 25
 1329 1022 l 25
EndSplineSet
EndChar

StartChar: G
Encoding: 71 71 27
Width: 1430
VWidth: 0
Flags: HW
LayerCount: 2
Fore
SplineSet
102 0 m 25
 102 1431 l 25
 1329 1431 l 25
 1329 1022 l 25
 511 1022 l 25
 511 409 l 25
 922 409 l 25
 922 613 l 1
 1329 613 l 29
 1329 -204 l 1
 920 -204 l 25
 920 0 l 25
 102 0 l 25
EndSplineSet
EndChar

StartChar: at
Encoding: 64 64 28
Width: 2047
VWidth: 0
Flags: HWO
LayerCount: 2
Fore
SplineSet
820 613 m 1
 820 0 l 1
 1842 0 l 1
 1842 1226 l 1
 206 1226 l 1
 206 204 l 1
 615 0 l 1
 615 818 l 1
 1433 818 l 1
 1433 409 l 1
 1228 409 l 1
 1228 613 l 1
 820 613 l 1
EndSplineSet
EndChar

StartChar: .notdef
Encoding: 65536 -1 29
Width: 2047
VWidth: 0
Flags: HW
HStem: 0 204<615 1433> 1022 204<615 1433>
VStem: 411 204<204 1022> 1433 204<204 1022>
LayerCount: 2
Fore
SplineSet
1433 204 m 25
 1433 1022 l 17
 1161 1022 887 1022 615 1022 c 9
 615 204 l 25
 1433 204 l 25
411 0 m 25
 411 1226 l 25
 1637 1226 l 25
 1637 0 l 25
 411 0 l 25
EndSplineSet
Comment: "Montserrat defines the .notdef glyph beyond the Unicode most-significant character (0xFFFF) to have the address 0x10000.+AAoACgAA-http://unicode.org/charts/PDF/U25A0.pdf+AAoA-https://www.microsoft.com/typography/otspec/recom.htm"
EndChar
